<svg width="219" height="40" fill="none" xmlns="http://www.w3.org/2000/svg"><g clip-path="url(#clip0)" fill="#B5B5B5"><path fill-rule="evenodd" clip-rule="evenodd" d="M51.203 1.783c1.985.19 3.553 1.964 3.553 4.104V22.08a17.3 17.3 0 01-.328-.337c-.794-.838-1.526-1.803-2.18-2.682a72.595 72.595 0 01-1.252-1.754c-1.304-1.869-2.495-3.573-3.89-4.333a3.37 3.37 0 00-1.4-.432c-1.081-1.861-2.365-3.526-3.844-4.436-1.985-1.22-4.21-1.172-6.611 1.271-1.898 1.933-3.335 5.145-4.647 8.377-3.163-4.974-5.6-5.6-7.713-4.367-1.495.871-2.696 2.703-3.885 4.521-1.068 1.63-2.128 3.248-3.26 3.935a2.152 2.152 0 01-.573.25c-.842-1.706-1.61-3.461-2.292-5.017-.35-.798-.677-1.542-1.006-2.262a50.276 50.276 0 00-.496-1.038c-.621-1.254-1.36-2.535-2.435-3.743a13.071 13.071 0 00-2.769-2.349V5.887c0-2.138 1.565-3.91 3.547-4.104h41.481zm-7.343 11.25c-1.262.752-2.643 2.405-4.228 5.312-.903 1.66-1.855 2.723-2.8 3.275-.511.298-1.014.441-1.501.442-.492.005-.983-.131-1.462-.393-.723-.394-1.42-1.069-2.062-1.98 1.384-3.463 2.864-7.094 4.759-9.021 1.64-1.672 3.086-1.754 4.329-.99 1.086.669 2.083 1.913 2.965 3.356zM12.703 21.19c-.722-.66-1.528-1.689-2.442-3.191-1.29-2.12-2.703-3.863-4.086-5.142V9.944c.528.42.987.86 1.392 1.314.944 1.062 1.604 2.207 2.16 3.332.114.231.198.4.245.498.072.148.147.313.229.49.287.629.628 1.405.99 2.232.467 1.062.97 2.212 1.512 3.38zm42.053 2.777v5.383a12.271 12.271 0 01-.357-.377c-2.654-2.929-4.138-6.434-5.636-9.971-.655-1.546-1.311-3.096-2.075-4.626 1.017.69 2.038 2.15 3.148 3.741.417.598.845 1.21 1.274 1.788.68.915 1.447 1.924 2.29 2.814.432.456.884.879 1.356 1.248zm0 7.807v1.099c0 2.267-1.758 4.122-3.908 4.122H10.083c-2.15 0-3.908-1.855-3.908-4.122V14.848c.97 1.058 1.95 2.365 2.876 3.888 1.802 2.963 3.364 4.374 4.77 4.764 1.77 3.477 3.879 6.722 6.327 7.916 2.973 1.45 6.207.13 9.519-6.666.508-1.045 1.014-2.256 1.529-3.532.62.738 1.292 1.31 1.997 1.694.688.376 1.408.572 2.144.568.74-.004 1.485-.21 2.211-.634 1.157-.675 2.29-1.92 3.328-3.823 1.493-2.742 2.681-4.187 3.69-4.752l.139.26c.88 1.686 1.623 3.44 2.362 5.185 1.56 3.681 3.104 7.329 5.968 10.49a13.705 13.705 0 00.854.864c.286.26.575.495.867.703zm-38.927-8.39c.222-.09.442-.2.656-.331 1.406-.854 2.553-2.604 3.708-4.368 1.1-1.678 2.207-3.368 3.413-4.072 1.528-.89 3.458-.09 6.339 4.784-.646 1.615-1.273 3.18-1.937 4.546-2.71 5.562-5.051 6.789-7.052 5.815-1.862-.908-3.598-3.472-5.127-6.375z"/><path d="M59.326 35.765V11.069h3.268V21.21h12.837V11.07h3.268v24.695h-3.268v-11.64H62.594v11.64h-3.268zm24.309 6.89l-.337-2.847c.662.18 1.24.27 1.735.27.674 0 1.213-.113 1.617-.338.404-.224.736-.539.994-.943.191-.303.5-1.055.927-2.257.056-.169.146-.416.27-.741l-6.79-17.924h3.268l3.723 10.36a46.004 46.004 0 011.297 4.144 40.788 40.788 0 011.247-4.077l3.824-10.427h3.032l-6.805 18.193c-.73 1.965-1.298 3.319-1.702 4.06-.539 1-1.157 1.73-1.853 2.19-.696.472-1.527.707-2.493.707-.584 0-1.236-.123-1.954-.37zm28.991-6.89v-2.257c-1.134 1.774-2.802 2.661-5.003 2.661a7.058 7.058 0 01-3.942-1.179c-1.19-.786-2.117-1.881-2.779-3.285-.652-1.415-.977-3.038-.977-4.868 0-1.786.297-3.403.892-4.852.596-1.46 1.488-2.577 2.679-3.352 1.19-.775 2.521-1.162 3.992-1.162 1.078 0 2.039.23 2.881.69a5.946 5.946 0 012.055 1.769v-8.86h3.015v24.695h-2.813zm-9.585-8.928c0 2.29.483 4.003 1.449 5.138.966 1.134 2.105 1.701 3.419 1.701 1.326 0 2.449-.539 3.37-1.617.932-1.09 1.398-2.746 1.398-4.97 0-2.448-.472-4.245-1.415-5.39-.944-1.146-2.106-1.719-3.487-1.719-1.348 0-2.477.55-3.386 1.651-.899 1.1-1.348 2.836-1.348 5.206zm17.149 8.928v-17.89h2.729v2.712c.696-1.27 1.336-2.106 1.92-2.51a3.408 3.408 0 011.954-.607c1.022 0 2.061.326 3.117.978l-1.045 2.813c-.741-.438-1.482-.657-2.223-.657-.663 0-1.258.202-1.786.606-.528.393-.904.944-1.128 1.651-.337 1.078-.506 2.257-.506 3.538v9.366h-3.032zm10.394-8.945c0-3.313.921-5.767 2.762-7.362 1.539-1.325 3.414-1.987 5.627-1.987 2.459 0 4.47.808 6.031 2.425 1.561 1.606 2.341 3.83 2.341 6.671 0 2.302-.348 4.116-1.044 5.441-.685 1.314-1.69 2.336-3.016 3.066-1.314.73-2.751 1.095-4.312 1.095-2.504 0-4.532-.803-6.081-2.409-1.539-1.606-2.308-3.92-2.308-6.94zm3.116 0c0 2.29.5 4.01 1.499 5.155 1 1.134 2.258 1.701 3.774 1.701 1.505 0 2.757-.573 3.756-1.718 1-1.146 1.5-2.892 1.5-5.24 0-2.212-.506-3.885-1.516-5.02-1-1.145-2.246-1.718-3.74-1.718-1.516 0-2.774.568-3.774 1.702-.999 1.134-1.499 2.847-1.499 5.138zm20.013 8.945H150.9V11.069h3.032v8.81c1.28-1.606 2.914-2.409 4.902-2.409 1.101 0 2.139.225 3.116.674a6.193 6.193 0 012.426 1.87c.64.797 1.14 1.763 1.499 2.898.36 1.134.54 2.347.54 3.638 0 3.066-.759 5.436-2.275 7.11-1.516 1.673-3.335 2.51-5.458 2.51-2.111 0-3.767-.882-4.969-2.646v2.24zm-.034-9.08c0 2.145.292 3.695.876 4.65.955 1.56 2.246 2.341 3.875 2.341 1.325 0 2.47-.573 3.436-1.718.966-1.157 1.449-2.875 1.449-5.155 0-2.336-.466-4.06-1.398-5.172-.921-1.111-2.039-1.667-3.353-1.667-1.325 0-2.47.578-3.436 1.735-.966 1.145-1.449 2.807-1.449 4.986zm28.688 3.319l3.134.387c-.494 1.83-1.41 3.251-2.746 4.262-1.337 1.01-3.044 1.516-5.121 1.516-2.617 0-4.695-.803-6.233-2.409-1.527-1.617-2.291-3.88-2.291-6.789 0-3.01.775-5.345 2.325-7.007 1.549-1.662 3.56-2.493 6.03-2.493 2.392 0 4.347.814 5.863 2.442 1.516 1.628 2.274 3.92 2.274 6.873 0 .18-.006.45-.017.809h-13.342c.112 1.965.668 3.47 1.668 4.514.999 1.045 2.246 1.567 3.74 1.567 1.111 0 2.06-.292 2.847-.876.786-.584 1.409-1.516 1.869-2.796zm-9.955-4.902h9.989c-.135-1.505-.516-2.634-1.145-3.386-.966-1.168-2.218-1.752-3.757-1.752-1.393 0-2.566.466-3.521 1.398-.943.932-1.465 2.179-1.566 3.74zm15.7 5.323l2.998-.472c.169 1.202.635 2.123 1.399 2.763.774.64 1.853.96 3.234.96 1.392 0 2.426-.28 3.1-.842.673-.573 1.01-1.241 1.01-2.005 0-.685-.297-1.224-.893-1.617-.415-.27-1.448-.612-3.099-1.028-2.224-.561-3.768-1.044-4.633-1.448-.853-.416-1.505-.983-1.954-1.702a4.595 4.595 0 01-.657-2.409c0-.797.18-1.533.539-2.206a4.973 4.973 0 011.5-1.702c.471-.348 1.111-.64 1.92-.876a9.064 9.064 0 012.628-.37c1.404 0 2.633.202 3.689.606 1.067.404 1.853.954 2.358 1.65.506.686.854 1.607 1.045 2.764l-2.965.404c-.135-.921-.528-1.64-1.179-2.157-.64-.516-1.55-.774-2.729-.774-1.393 0-2.387.23-2.982.69-.595.46-.893 1-.893 1.617 0 .394.124.747.371 1.062.247.325.634.595 1.162.808.304.113 1.196.371 2.679.775 2.145.573 3.638 1.045 4.481 1.415.853.36 1.521.887 2.004 1.584.483.696.725 1.56.725 2.594 0 1.01-.298 1.965-.893 2.864-.584.887-1.432 1.578-2.544 2.072-1.112.483-2.369.724-3.773.724-2.325 0-4.099-.483-5.323-1.448-1.213-.966-1.988-2.398-2.325-4.296zm25.083 2.628l.438 2.678c-.853.18-1.617.27-2.291.27-1.101 0-1.954-.174-2.561-.523-.606-.348-1.033-.803-1.28-1.364-.247-.573-.37-1.769-.37-3.588V20.233h-2.224v-2.358h2.224v-4.43l3.015-1.82v6.25h3.049v2.358h-3.049v10.461c0 .865.051 1.421.152 1.668.112.247.286.444.522.59.247.146.595.219 1.044.219.337 0 .781-.04 1.331-.118z"/></g><defs><clipPath id="clip0"><path fill="#fff" transform="translate(.745)" d="M0 0h217.984v39.118H0z"/></clipPath></defs></svg>