<svg width="219" height="40" viewBox="0 0 219 40" fill="none" xmlns="http://www.w3.org/2000/svg">
<g clip-path="url(#clip0)">
<path fill-rule="evenodd" clip-rule="evenodd" d="M51.203 1.78302C53.1884 1.97342 54.7561 3.74712 54.7561 5.88722V22.0785C54.6444 21.9674 54.5363 21.8558 54.4281 21.7425C53.6342 20.9043 52.9019 19.9389 52.2477 19.0604C51.8019 18.4593 51.3928 17.8747 50.9965 17.3063C49.6917 15.4372 48.5014 13.7326 47.1063 12.9726C46.6495 12.7229 46.1841 12.5722 45.7066 12.5406C44.625 10.68 43.3409 9.01512 41.8624 8.10502C39.877 6.88482 37.6518 6.93252 35.2505 9.37642C33.3525 11.3094 31.916 14.5213 30.6038 17.7528C27.4413 12.7793 25.0049 12.1522 22.8907 13.3857C21.3961 14.2573 20.1954 16.089 19.0063 17.907C17.9379 19.5374 16.8776 21.1551 15.7466 21.842C15.5619 21.9554 15.3715 22.0394 15.173 22.0923C14.3314 20.3859 13.5622 18.6307 12.881 17.0751C12.5307 16.2771 12.2039 15.5327 11.8748 14.813C11.8023 14.6565 11.7206 14.4833 11.6309 14.2946C11.5158 14.0547 11.4353 13.8862 11.3795 13.7757C10.7576 12.521 10.0189 11.2398 8.94419 10.0317C8.20039 9.19572 7.30119 8.40132 6.17529 7.68332V5.88722C6.17529 3.74942 7.74009 1.97692 9.72199 1.78302H51.203ZM43.8604 13.0336C42.5976 13.7849 41.2169 15.4378 39.632 18.3448C38.7287 20.0045 37.7772 21.0677 36.832 21.62C36.3205 21.918 35.8177 22.0612 35.331 22.0624C34.8391 22.0675 34.3484 21.9306 33.8686 21.6689C33.146 21.2748 32.4482 20.6005 31.8073 19.6881C33.1915 16.2259 34.6706 12.5952 36.5656 10.6679C38.2069 8.99612 39.6521 8.91392 40.8947 9.67842C41.9809 10.3469 42.9779 11.5913 43.8604 13.0336ZM12.7033 21.1891C11.9813 20.5298 11.1747 19.5 10.2611 17.9979C8.97129 15.8779 7.55779 14.1353 6.17529 12.8558V9.94422C6.70339 10.3636 7.16249 10.8043 7.56699 11.2576C8.51099 12.3202 9.17089 13.4645 9.72719 14.5903C9.84109 14.821 9.92509 14.9908 9.97169 15.088C10.0442 15.2364 10.119 15.4009 10.2007 15.5781C10.4883 16.2069 10.8289 16.983 11.1919 17.8103C11.6579 18.8723 12.1602 20.0218 12.7033 21.1891ZM54.7561 23.966L54.7555 29.3486C54.622 29.2128 54.5035 29.0879 54.3994 28.9723C51.7455 26.0434 50.2612 22.5376 48.7626 19.0006C48.1079 17.4553 47.4515 15.9055 46.688 14.3746C47.7052 15.0655 48.7257 16.5257 49.8361 18.1164C50.2526 18.7135 50.6812 19.3268 51.1098 19.9044C51.7904 20.8191 52.5567 21.8276 53.4001 22.7176C53.8321 23.1744 54.2837 23.5967 54.7561 23.966ZM54.7561 31.7734V32.8717C54.7561 35.1395 52.9979 36.9937 50.848 36.9937H10.0833C7.93339 36.9937 6.17529 35.1395 6.17529 32.8717V14.8481C7.14529 15.9061 8.12499 17.2126 9.05119 18.7365C10.8531 21.6988 12.415 23.11 13.8216 23.5C15.5901 26.9766 17.6997 30.2224 20.1482 31.4162C23.1214 32.8654 26.3552 31.5462 29.6666 24.7502C30.1752 23.7054 30.6808 22.4938 31.1957 21.2178C31.8165 21.9559 32.4879 22.5289 33.1926 22.9121C33.8807 23.2883 34.6009 23.4839 35.3373 23.4799C36.0777 23.4759 36.8216 23.2705 37.5482 22.8459C38.7051 22.1705 39.8385 20.9256 40.8758 19.0225C42.3692 16.2812 43.5572 14.836 44.5657 14.2711C44.6129 14.3579 44.6595 14.4442 44.705 14.5317C45.5852 16.2173 46.3279 17.9708 47.0672 19.7157C48.6262 23.3971 50.1709 27.045 53.0348 30.2063C53.1889 30.376 53.3299 30.5262 53.4547 30.6516C53.583 30.7839 53.7291 30.9214 53.8891 31.0699C54.175 31.3293 54.4638 31.5652 54.7561 31.7734ZM15.8289 23.3821C16.0509 23.2935 16.2707 23.1825 16.4847 23.0519C17.8907 22.1976 19.0385 20.4475 20.1931 18.6836C21.2925 17.006 22.4 15.3158 23.6058 14.6116C25.1338 13.7216 27.0639 14.5219 29.945 19.3958C29.2995 21.0107 28.6719 22.5755 28.008 23.9419V23.9424C25.2972 29.5039 22.9569 30.731 20.9565 29.757C19.0937 28.8486 17.358 26.2851 15.8289 23.3821Z" fill="#B5B5B5"/>
<path d="M59.3264 35.7649V11.0691H62.5945V21.2102H75.4309V11.0691H78.699V35.7649H75.4309V24.1245H62.5945V35.7649H59.3264ZM83.6348 42.6548L83.2979 39.8079C83.9604 39.9875 84.5388 40.0774 85.033 40.0774C85.7068 40.0774 86.2458 39.9651 86.6501 39.7405C87.0544 39.5159 87.3857 39.2014 87.644 38.7971C87.835 38.4939 88.1438 37.7415 88.5706 36.5398C88.6267 36.3713 88.7166 36.1243 88.8401 35.7986L82.0513 17.8748H85.3193L89.0422 28.2349C89.5251 29.5488 89.9575 30.9302 90.3394 32.3789C90.6875 30.9863 91.103 29.6274 91.5859 28.3022L95.4099 17.8748H98.4421L91.6365 36.0681C90.9065 38.0334 90.3394 39.3867 89.9351 40.1279C89.396 41.1274 88.7783 41.8574 88.082 42.3179C87.3857 42.7896 86.5547 43.0254 85.5889 43.0254C85.0049 43.0254 84.3535 42.9019 83.6348 42.6548ZM112.626 35.7649V33.5076C111.492 35.282 109.824 36.1692 107.623 36.1692C106.197 36.1692 104.883 35.7761 103.681 34.99C102.491 34.2039 101.564 33.1089 100.902 31.7051C100.25 30.29 99.9246 28.6672 99.9246 26.8367C99.9246 25.051 100.222 23.4338 100.817 21.9851C101.413 20.5251 102.305 19.4077 103.496 18.6328C104.686 17.8579 106.017 17.4705 107.488 17.4705C108.566 17.4705 109.527 17.7007 110.369 18.1611C111.211 18.6104 111.896 19.2 112.424 19.9299V11.0691H115.439V35.7649H112.626ZM103.041 26.8367C103.041 29.1277 103.524 30.8403 104.49 31.9746C105.456 33.1089 106.595 33.676 107.909 33.676C109.235 33.676 110.358 33.137 111.279 32.0588C112.211 30.9695 112.677 29.313 112.677 27.0894C112.677 24.6411 112.205 22.8442 111.262 21.6987C110.318 20.5532 109.156 19.9805 107.775 19.9805C106.427 19.9805 105.298 20.5308 104.389 21.6313C103.49 22.7319 103.041 24.467 103.041 26.8367ZM120.19 35.7649V17.8748H122.919V20.5869C123.615 19.3179 124.255 18.4812 124.839 18.0769C125.435 17.6726 126.086 17.4705 126.793 17.4705C127.815 17.4705 128.854 17.7961 129.91 18.4475L128.865 21.2607C128.124 20.8228 127.383 20.6038 126.642 20.6038C125.979 20.6038 125.384 20.8059 124.856 21.2102C124.328 21.6033 123.952 22.1536 123.728 22.8611C123.391 23.9392 123.222 25.1184 123.222 26.3987V35.7649H120.19ZM130.584 26.8198C130.584 23.5068 131.505 21.053 133.346 19.4583C134.885 18.1331 136.76 17.4705 138.973 17.4705C141.432 17.4705 143.443 18.2791 145.004 19.8962C146.565 21.5022 147.345 23.7258 147.345 26.5671C147.345 28.8694 146.997 30.6831 146.301 32.0083C145.616 33.3223 144.611 34.3442 143.285 35.0742C141.971 35.8042 140.534 36.1692 138.973 36.1692C136.469 36.1692 134.441 35.3662 132.892 33.7603C131.353 32.1543 130.584 29.8408 130.584 26.8198ZM133.7 26.8198C133.7 29.1108 134.2 30.8291 135.199 31.9746C136.199 33.1089 137.457 33.676 138.973 33.676C140.478 33.676 141.73 33.1033 142.729 31.9578C143.729 30.8123 144.229 29.0659 144.229 26.7188C144.229 24.5063 143.723 22.833 142.713 21.6987C141.713 20.5532 140.467 19.9805 138.973 19.9805C137.457 19.9805 136.199 20.5476 135.199 21.6819C134.2 22.8162 133.7 24.5288 133.7 26.8198ZM153.713 35.7649H150.9V11.0691H153.932V19.8794C155.212 18.2734 156.846 17.4705 158.834 17.4705C159.935 17.4705 160.973 17.6951 161.95 18.1443C162.939 18.5823 163.747 19.2056 164.376 20.0142C165.016 20.8115 165.516 21.7773 165.875 22.9116C166.235 24.0459 166.415 25.2588 166.415 26.5503C166.415 29.6162 165.656 31.9858 164.14 33.6592C162.624 35.3325 160.805 36.1692 158.682 36.1692C156.571 36.1692 154.915 35.2876 153.713 33.5244V35.7649ZM153.679 26.6851C153.679 28.8301 153.971 30.3799 154.555 31.3345C155.51 32.8955 156.801 33.676 158.43 33.676C159.755 33.676 160.9 33.1033 161.866 31.9578C162.832 30.801 163.315 29.0828 163.315 26.803C163.315 24.467 162.849 22.7432 161.917 21.6313C160.996 20.5195 159.878 19.9636 158.564 19.9636C157.239 19.9636 156.094 20.542 155.128 21.6987C154.162 22.8442 153.679 24.5063 153.679 26.6851ZM182.367 30.0037L185.501 30.3911C185.007 32.2217 184.091 33.6423 182.755 34.6531C181.418 35.6638 179.711 36.1692 177.634 36.1692C175.017 36.1692 172.939 35.3662 171.401 33.7603C169.874 32.1431 169.11 29.8801 169.11 26.9714C169.11 23.9617 169.885 21.6257 171.435 19.9636C172.984 18.3015 174.995 17.4705 177.465 17.4705C179.857 17.4705 181.812 18.2847 183.328 19.9131C184.844 21.5415 185.602 23.8325 185.602 26.7861C185.602 26.9658 185.596 27.2354 185.585 27.5947H172.243C172.355 29.5601 172.911 31.0649 173.911 32.1094C174.91 33.1538 176.157 33.676 177.651 33.676C178.762 33.676 179.711 33.384 180.498 32.8C181.284 32.2161 181.907 31.2839 182.367 30.0037ZM172.412 25.1016H182.401C182.266 23.5967 181.885 22.468 181.256 21.7156C180.29 20.5476 179.038 19.9636 177.499 19.9636C176.106 19.9636 174.933 20.4297 173.978 21.3618C173.035 22.2939 172.513 23.5405 172.412 25.1016ZM188.112 30.4248L191.11 29.9531C191.279 31.1548 191.745 32.0757 192.509 32.7158C193.283 33.356 194.362 33.676 195.743 33.676C197.135 33.676 198.169 33.3953 198.843 32.8337C199.516 32.261 199.853 31.5928 199.853 30.8291C199.853 30.144 199.556 29.605 198.96 29.2119C198.545 28.9424 197.512 28.5999 195.861 28.1843C193.637 27.6228 192.093 27.1399 191.228 26.7356C190.375 26.3201 189.723 25.7529 189.274 25.0342C188.836 24.3042 188.617 23.5012 188.617 22.6252C188.617 21.8279 188.797 21.0923 189.156 20.4185C189.527 19.7334 190.027 19.1663 190.656 18.717C191.127 18.3689 191.767 18.0769 192.576 17.8411C193.396 17.594 194.272 17.4705 195.204 17.4705C196.608 17.4705 197.837 17.6726 198.893 18.0769C199.96 18.4812 200.746 19.0315 201.251 19.7278C201.757 20.4128 202.105 21.3337 202.296 22.4905L199.331 22.8948C199.196 21.9739 198.803 21.2551 198.152 20.7385C197.512 20.2219 196.602 19.9636 195.423 19.9636C194.03 19.9636 193.036 20.1938 192.441 20.6543C191.846 21.1147 191.548 21.6538 191.548 22.2715C191.548 22.6646 191.672 23.0183 191.919 23.3328C192.166 23.6584 192.553 23.928 193.081 24.1414C193.385 24.2537 194.277 24.512 195.76 24.9163C197.905 25.489 199.398 25.9607 200.241 26.3313C201.094 26.6907 201.762 27.2185 202.245 27.9148C202.728 28.6111 202.97 29.4758 202.97 30.509C202.97 31.5198 202.672 32.4744 202.077 33.3728C201.493 34.26 200.645 34.9507 199.533 35.4448C198.421 35.9277 197.164 36.1692 195.76 36.1692C193.435 36.1692 191.661 35.6863 190.437 34.7205C189.224 33.7546 188.449 32.3228 188.112 30.4248ZM213.195 33.0527L213.633 35.7312C212.78 35.9109 212.016 36.0007 211.342 36.0007C210.241 36.0007 209.388 35.8267 208.781 35.4785C208.175 35.1304 207.748 34.6755 207.501 34.114C207.254 33.5413 207.131 32.3452 207.131 30.5259V20.2332H204.907V17.8748H207.131V13.4443L210.146 11.625V17.8748H213.195V20.2332H210.146V30.6943C210.146 31.5591 210.197 32.115 210.298 32.3621C210.41 32.6091 210.584 32.8057 210.82 32.9517C211.067 33.0977 211.415 33.1707 211.864 33.1707C212.201 33.1707 212.645 33.1313 213.195 33.0527Z" fill="#B5B5B5"/>
</g>
<defs>
<clipPath id="clip0">
<rect width="217.984" height="39.1181" fill="white" transform="translate(0.744629)"/>
</clipPath>
</defs>
</svg>
